<svg xmlns="http://www.w3.org/2000/svg" width="29" height="24"><path fill="#424242" fill-rule="evenodd" d="M29.005 2.852a11.735 11.735 0 01-3.424.938A6.023 6.023 0 0028.195.453c-1.141.693-2.43 1.2-3.774 1.462A5.881 5.881 0 0020.077.003c-3.295 0-5.946 2.718-5.946 6.055 0 .469.055.938.147 1.388-4.933-.263-9.333-2.663-12.259-6.337a6.09 6.09 0 00-.81 3.056 6.083 6.083 0 002.65 5.043 5.91 5.91 0 01-2.687-.769v.075c0 2.944 2.043 5.381 4.767 5.943a6.132 6.132 0 01-1.564.207c-.387 0-.755-.038-1.123-.094.755 2.4 2.945 4.143 5.559 4.199a11.77 11.77 0 01-7.381 2.587c-.498 0-.958-.018-1.436-.074A16.584 16.584 0 009.124 24c10.935 0 16.917-9.224 16.917-17.229 0-.263 0-.525-.018-.788a12.9 12.9 0 002.982-3.131z"/></svg>