<svg xmlns="http://www.w3.org/2000/svg" width="24" height="20"><path fill="#FFF" fill-rule="evenodd" d="M9.23 18.177c0-1.008-.822-1.817-1.846-1.817s-1.846.809-1.846 1.817c0 1.009.822 1.818 1.846 1.818s1.846-.809 1.846-1.818zm12.923 0c0-1.008-.822-1.817-1.846-1.817s-1.846.809-1.846 1.817c0 1.009.822 1.818 1.846 1.818s1.846-.809 1.846-1.818zm1.846-15.449a.922.922 0 00-.923-.908H5.755C5.61 1.138 5.596.002 4.615.002H.923A.922.922 0 000 .911c0 .497.418.909.923.909h2.942l2.553 11.686c-.202.411-.88 1.505-.88 1.945 0 .497.418.909.923.909H21.23a.922.922 0 00.923-.909.922.922 0 00-.923-.909H7.961c.144-.284.346-.582.346-.908 0-.327-.129-.682-.187-.995l15.057-1.732a.924.924 0 00.822-.909v-7.27z"/></svg>